# xmcd
#
# Track frame offsets: 
#        150
#        10954
#        27972
#        43691
#        58719
#        72890
#        91828
#        106027
#        121037
#        137926
#        151345
#        163694
#        177272
#        187764
#        204986
#        222562
#
# Disc length: 3152 seconds
#
# Revision: 0
# Processed by: cddbd v1.5.2PL0 Copyright (c) Steve Scherf et al.
# Submitted via: ExactAudioCopy v0.99pb5
#
DISCID=d20c4e10
DTITLE=Veisser Jiri - Country Ranger
DYEAR=2001
DGENRE=Country
TTITLE0=Nejsme na tom jak driv
TTITLE1=Klidnej spanek
TTITLE2=Diesel blues
TTITLE3=Jsem volnej
TTITLE4=Cikanka
TTITLE5=Kapitan
TTITLE6=Dneska domu nespecham
TTITLE7=Panskej klub
TTITLE8=Telefonni seznam
TTITLE9=Ziju jak se da
TTITLE10=Vzpominka na Idaho
TTITLE11=Starsi pan v zimni Praze
TTITLE12=Jezdim vlakem
TTITLE13=Blues hvizdavyho parniku
TTITLE14=Cerna holka z Minnesoty
TTITLE15=To rano, co mu predchazel flam
EXTD=
EXTT0=
EXTT1=
EXTT2=
EXTT3=
EXTT4=
EXTT5=
EXTT6=
EXTT7=
EXTT8=
EXTT9=
EXTT10=
EXTT11=
EXTT12=
EXTT13=
EXTT14=
EXTT15=
PLAYORDER=
